<svg width="32" height="32" viewBox="0 0 32 32" xmlns="http://www.w3.org/2000/svg">
  <!-- Background -->
  <rect width="32" height="32" fill="#1e40af" rx="4"/>
  
  <!-- Authentic Lion Capital (Simplified for favicon) -->
  <g transform="translate(4, 4)">
    <!-- Lotus Base -->
    <ellipse cx="12" cy="20" rx="10" ry="2" fill="#f59e0b"/>
    <rect x="2" y="18" width="20" height="4" fill="#fbbf24" rx="1"/>
    
    <!-- Abacus -->
    <rect x="3" y="15" width="18" height="3" fill="#d97706" rx="0.5"/>
    <circle cx="7" cy="16.5" r="0.7" fill="#ffffff"/>
    <circle cx="12" cy="16.5" r="0.7" fill="#ffffff"/>
    <circle cx="17" cy="16.5" r="0.7" fill="#ffffff"/>
    
    <!-- Ashoka Chakra -->
    <circle cx="12" cy="12" r="5" fill="none" stroke="#ffffff" stroke-width="1"/>
    <circle cx="12" cy="12" r="2.5" fill="none" stroke="#ffffff" stroke-width="0.7"/>
    <circle cx="12" cy="12" r="0.8" fill="#ffffff"/>
    
    <!-- 8 Spokes (simplified) -->
    <g stroke="#ffffff" stroke-width="0.5">
      <line x1="12" y1="7" x2="12" y2="9" transform="rotate(0 12 12)"/>
      <line x1="12" y1="7" x2="12" y2="9" transform="rotate(45 12 12)"/>
      <line x1="12" y1="7" x2="12" y2="9" transform="rotate(90 12 12)"/>
      <line x1="12" y1="7" x2="12" y2="9" transform="rotate(135 12 12)"/>
      <line x1="12" y1="7" x2="12" y2="9" transform="rotate(180 12 12)"/>
      <line x1="12" y1="7" x2="12" y2="9" transform="rotate(225 12 12)"/>
      <line x1="12" y1="7" x2="12" y2="9" transform="rotate(270 12 12)"/>
      <line x1="12" y1="7" x2="12" y2="9" transform="rotate(315 12 12)"/>
    </g>
    
    <!-- Three Lions (Very simplified) -->
    <g fill="#fbbf24">
      <!-- Front Lion -->
      <ellipse cx="12" cy="6" rx="1.5" ry="2.5"/>
      <!-- Mane dots -->
      <circle cx="11" cy="5" r="0.4" fill="#f59e0b"/>
      <circle cx="13" cy="5" r="0.4" fill="#f59e0b"/>
      <circle cx="12" cy="4.5" r="0.4" fill="#f59e0b"/>
      <!-- Eyes -->
      <circle cx="11.3" cy="5.5" r="0.15" fill="#1e40af"/>
      <circle cx="12.7" cy="5.5" r="0.15" fill="#1e40af"/>
      
      <!-- Side Lions -->
      <ellipse cx="8.5" cy="6" rx="1" ry="2"/>
      <ellipse cx="15.5" cy="6" rx="1" ry="2"/>
    </g>
    
    <!-- Crown -->
    <circle cx="12" cy="3" r="1" fill="#fbbf24"/>
  </g>
</svg>